<?xml  version="1.0" encoding="UTF-8"?>
<!DOCTYPE svg PUBLIC "-//W3C//DTD SVG 1.0//EN" "http://www.w3.org/TR/2001/REC-SVG-20010904/DTD/svg10.dtd" >
<svg xmlns="http://www.w3.org/2000/svg" >
<metadata>
<version>1.0</version>
<id><![CDATA[Proxima N W01SC Light It]]></id>
<vendor>Monotype Imaging Inc.</vendor>
<credits>
<name>Fonts.com WebFonts</name>
<URL>http://webfonts.fonts.com</URL>
<role>Home of the Web fonts</role>
</credits>
<license>
<URL>http://webfonts.fonts.com/Legal</URL>
</license>
<copyright><![CDATA[Copyright (c) Mark Simonson, 2005. All rights reserved.]]></copyright>
<trademark><![CDATA[Proxima Nova is a trademark of Mark Simonson.]]></trademark>
<licensee>
<name></name>
</licensee>
</metadata>
<defs >
<font horiz-adv-x="512" id="de384915-abcd-48e0-9b06-0da781436275">
<font-face font-family="" panose-1="2 0 5 6 3 0 0 2 0 4" ascent="769" descent="-231" units-per-em="1000" alphabetic="0">
</font-face>
<missing-glyph horiz-adv-x="0" />

<glyph unicode="&#xA;" />
<glyph unicode="&#xD;" horiz-adv-x="0" />
<glyph unicode=" " horiz-adv-x="259" />
<glyph unicode="!" horiz-adv-x="176" d="M86 149H47L122 550H187L86 149ZM37 -10Q20 -10 9 2T-3 31Q-3 51 11 64T45 78Q62 78 73 67T85 38Q85 18 71 4T37 -10Z"  />
<glyph unicode="&quot;" horiz-adv-x="317" d="M118 427Q125 481 130 525Q132 544 134 562T138 595T141 620T143 633Q145 653 156 665T185 677Q198 677 207 668T217 644Q217 639 215 633T212 624Q212 623 209 615T202 592T191 560T179 524Q165 481 147 427H118ZM249 427Q256 481 261 525Q263 544 265 562T269 595T272 620T274 633Q276 653 287 665T316 677Q330 677 339 668T348 644Q348 639 346 633T343 624Q343 623 340 615T333 592T322 560T310 524Q296 481 278 427H249Z"  />
<glyph unicode="#" horiz-adv-x="488" d="M477 353H385L301 201H394L373 162H279L189 0H144L234 162H138L49 0H4L93 162H5L26 201H116L200 353H110L129 390H220L310 550H355L265 390H360L451 550H496L405 390H496L477 353ZM245 353L160 201H256L339 353H245Z"  />
<glyph unicode="$" horiz-adv-x="499" d="M236 -12Q231 -12 226 -12T216 -11L202 -74H159L174 -7Q122 1 80 24T10 86L51 122Q71 92 105 71T185 42L235 267Q208 277 182 289T135 318T102 356T89 408Q89 441 105 469T148 517T211 550T286 562Q290 562 293 562T300 561L315 628H358L342 556Q390 547 426 525T486 473L447 437Q429 464 398 482T331 508L286 305Q314 294 341 282T390 252T425 210T439 153Q439 123 428 94T392 41T329 3T236 -12ZM380 151Q380 170 372 185T349 211T315 232T274 251L227 37H238Q278 37 305 47T349 73T373 110T380 151ZM148 409Q148 392 155 379T176 356T208 337T247 320L289 513H285Q257 513 232 505T189 484T159 451T148 409Z"  />
<glyph unicode="%" horiz-adv-x="582" d="M328 445Q328 415 317 387T287 338T240 303T181 290Q127 290 95 321T63 406Q63 436 74 464T104 514T151 549T210 562Q263 562 295 531T328 445ZM68 0H23L527 550H573L68 0ZM286 443Q286 478 267 503T209 528Q186 528 167 518T134 491T112 452T104 407Q104 373 124 349T182 324Q204 324 223 334T256 360T278 398T286 443ZM532 143Q532 113 521 85T491 36T444 1T385 -12Q332 -12 300 19T267 105Q267 135 278 163T308 213T355 248T414 261Q467 261 499 229T532 143ZM490 142Q490 176 471 201T413 226Q390 226 371 216T338 189T316 151T308 106Q308 72 328 48T386 23Q408 23 427 33T460 59T482 97T490 142Z"  />
<glyph unicode="&amp;" horiz-adv-x="552" d="M383 0Q372 13 362 26T340 53Q303 23 262 6T175 -12Q138 -12 107 -3T53 26T18 72T5 135Q5 174 19 203T56 253T109 289T172 317Q149 372 149 413Q149 445 161 472T195 520T244 551T302 562Q325 562 346 556T385 538T412 507T423 462Q423 426 407 401T365 358T306 326T238 299Q249 279 262 258T291 214Q308 188 323 166T353 124Q383 156 408 193T453 265L493 243Q467 199 439 160T378 88Q393 68 410 47T449 0H383ZM180 30Q215 30 248 45T314 87Q294 114 277 138T247 183Q230 209 216 233T189 280Q162 269 139 256T98 227T70 189T59 139Q59 91 91 61T180 30ZM200 413Q200 396 205 377T221 334Q251 345 278 356T327 382T361 415T374 460Q374 490 355 506T304 522Q259 522 230 492T200 413Z"  />
<glyph unicode="&apos;" horiz-adv-x="187" d="M118 427Q125 481 130 525Q132 544 134 562T138 595T141 620T143 633Q145 653 156 665T185 677Q198 677 207 668T217 644Q217 639 215 633T212 624Q212 623 209 615T202 592T191 560T179 524Q165 481 147 427H118Z"  />
<glyph unicode="(" horiz-adv-x="227" d="M81 -199Q55 -139 40 -68T25 84Q25 240 89 392T276 685L302 659Q199 521 140 374T81 60Q81 3 91 -59T117 -179L81 -199Z"  />
<glyph unicode=")" horiz-adv-x="227" d="M145 685Q171 625 186 554T201 402Q201 246 137 94T-50 -199L-76 -173Q27 -35 86 112T145 426Q145 483 135 545T109 665L145 685Z"  />
<glyph unicode="*" horiz-adv-x="335" d="M181 399L214 518L102 466L91 500L206 541L115 604L140 634L224 561L244 677H282L250 559L362 610L373 576L258 535L349 472L323 442L240 515L220 399H181Z"  />
<glyph unicode="+" horiz-adv-x="496" d="M286 316L238 99H194L242 316H45L54 358H251L297 569H342L296 358H493L483 316H286Z"  />
<glyph unicode="&#x2c;" horiz-adv-x="219" d="M109 30Q109 9 101 -13T78 -54T45 -90T6 -116L-18 -90Q10 -76 31 -53T60 -6H53Q39 -6 29 4T19 30Q19 50 33 64T66 78Q84 78 96 66T109 30Z"  />
<glyph unicode="-" horiz-adv-x="300" d="M24 218L34 266H274L264 218H24Z"  />
<glyph unicode="." horiz-adv-x="219" d="M59 -10Q42 -10 31 2T19 31Q19 51 33 64T67 78Q84 78 95 67T107 38Q107 18 93 4T59 -10Z"  />
<glyph unicode="/" horiz-adv-x="282" d="M-59 -20L334 687H381L-13 -20H-59Z"  />
<glyph unicode="0" horiz-adv-x="608" d="M564 328Q564 294 556 256T533 180T494 108T439 47T369 4T284 -12Q227 -12 184 4T113 51T70 125T56 222Q56 256 64 294T87 370T126 442T181 503T251 546T337 562Q394 562 436 546T507 499T550 425T564 328ZM504 325Q504 413 463 461T336 510Q280 510 239 481T170 408T130 315T116 225Q116 137 157 89T284 40Q341 40 382 69T451 142T491 235T504 325Z"  />
<glyph unicode="1" horiz-adv-x="308" d="M114 0L217 472L86 358L59 395L240 550H292L171 0H114Z"  />
<glyph unicode="2" horiz-adv-x="576" d="M10 0L20 50Q120 89 201 129T341 210T430 296T462 387Q462 415 451 437T419 476T372 501T312 510Q255 510 210 491T122 432L92 471Q183 562 316 562Q359 562 396 551T462 519T506 467T522 395Q522 339 490 290T403 198T279 119T135 52H436L425 0H10Z"  />
<glyph unicode="3" horiz-adv-x="542" d="M213 -129Q172 -129 134 -119T64 -91T9 -47T-27 10L19 40Q42 -14 94 -45T212 -77Q253 -77 285 -65T341 -32T376 19T388 83Q388 136 345 168T229 201Q209 201 195 201T172 199L185 253Q188 253 198 253T222 252T250 252T274 252Q307 252 338 260T394 286T432 328T447 389Q447 439 404 473T285 508Q242 508 199 492T114 438L86 478Q124 516 177 538T288 560Q334 560 374 549T443 517T488 465T505 394Q505 354 489 323T446 270T388 236T324 221Q348 215 370 204T408 174T435 133T445 80Q445 38 429 0T382 -66T308 -112T213 -129Z"  />
<glyph unicode="4" horiz-adv-x="541" d="M369 66L328 -117H271L311 66H-5L7 118L398 550H475L380 118H477L466 66H369ZM405 493L65 118H322L405 493Z"  />
<glyph unicode="5" horiz-adv-x="582" d="M245 -129Q159 -129 104 -96T16 6L62 39Q88 -21 135 -49T250 -77Q287 -77 320 -63T379 -25T419 33T434 105Q434 139 422 165T388 210T337 237T273 247Q231 247 197 235T127 197L89 219L162 550H547L536 498H208L153 251Q176 268 213 282T296 297Q335 297 371 285T434 250T477 191T494 110Q494 62 476 19T425 -57T346 -109T245 -129Z"  />
<glyph unicode="6" horiz-adv-x="584" d="M275 -12Q171 -12 116 50T61 228Q61 272 69 322T93 423T135 518T196 599T276 656T377 677Q446 677 494 650T569 573L526 536Q507 578 468 601T374 625Q320 625 280 599T210 532T161 439T130 338Q128 331 127 327T125 319Q138 334 159 350T207 380T263 403T325 412Q369 412 405 400T468 366T509 312T524 239Q524 189 505 144T453 64T375 9T275 -12ZM277 40Q318 40 352 56T411 98T450 159T464 231Q464 292 421 327T307 362Q253 362 205 336T118 266Q117 259 117 241T116 213Q116 137 157 89T277 40Z"  />
<glyph unicode="7" horiz-adv-x="502" d="M41 -117L455 498H89L100 550H537L528 510L107 -117H41Z"  />
<glyph unicode="8" horiz-adv-x="571" d="M266 -12Q218 -12 176 -1T103 31T55 83T37 155Q37 194 52 226T95 284T161 326T246 351Q224 359 203 372T164 403T135 444T124 494Q124 541 144 575T197 632T269 666T349 677Q391 677 430 666T499 635T546 584T564 516Q564 478 550 448T509 396T446 359T368 338Q389 329 412 315T454 282T486 236T499 178Q499 137 481 102T431 42T357 2T266 -12ZM313 368Q354 371 388 382T448 410T488 453T503 510Q503 534 491 555T457 591T408 615T347 624Q315 624 285 615T232 589T196 548T182 491Q182 467 194 447T226 411T269 384T313 368ZM267 40Q299 40 330 49T386 77T426 121T441 182Q441 209 428 232T393 272T348 301T302 319Q258 316 221 304T157 271T114 224T98 165Q98 134 111 111T148 72T202 48T267 40Z"  />
<glyph unicode="9" horiz-adv-x="584" d="M321 561Q425 561 480 499T535 321Q535 277 527 227T503 126T461 31T400 -50T320 -107T219 -128Q150 -128 102 -101T28 -24L70 13Q89 -29 128 -52T223 -76Q277 -76 317 -50T387 17T435 110T467 211Q469 218 470 222T471 230Q457 215 436 199T389 169T333 146T271 137Q227 137 191 149T128 183T87 237T72 310Q72 360 91 405T143 485T222 540T321 561ZM319 509Q278 509 244 493T185 451T146 390T132 318Q132 257 175 222T289 187Q343 187 391 213T478 283Q479 290 479 308T480 336Q480 374 470 405T439 460T389 496T319 509Z"  />
<glyph unicode=":" horiz-adv-x="217" d="M59 -10Q42 -10 31 2T19 31Q19 51 33 64T67 78Q84 78 95 67T107 38Q107 18 93 4T59 -10ZM150 403Q133 403 122 414T110 443Q110 463 124 476T158 490Q175 490 186 479T198 450Q198 430 184 417T150 403Z"  />
<glyph unicode=";" horiz-adv-x="219" d="M109 30Q109 9 101 -13T78 -54T45 -90T6 -116L-18 -90Q10 -76 31 -53T60 -6H53Q39 -6 29 4T19 30Q19 50 33 64T66 78Q84 78 96 66T109 30ZM150 403Q133 403 122 414T110 443Q110 463 124 476T158 490Q175 490 186 479T198 450Q198 430 184 417T150 403Z"  />
<glyph unicode="&lt;" horiz-adv-x="496" d="M44 316L53 353L541 580L529 528L101 332L442 137L432 90L44 316Z"  />
<glyph unicode="=" horiz-adv-x="496" d="M66 411L75 453H513L504 411H66ZM22 216L32 257H470L461 216H22Z"  />
<glyph unicode="&gt;" horiz-adv-x="496" d="M-6 90L6 142L436 336L93 533L103 580L491 353L483 316L-6 90Z"  />
<glyph unicode="?" horiz-adv-x="397" d="M412 438Q412 401 395 376T353 333T298 302T243 275T200 247T183 210Q183 202 188 193T205 172L163 151Q150 163 143 177T135 208Q135 238 151 258T192 294T245 321T298 348T338 382T355 432Q355 472 322 493T234 515Q186 515 149 496T79 445L53 482Q90 520 138 540T239 561Q278 561 310 552T364 527T399 488T412 438ZM138 -10Q121 -10 110 2T98 31Q98 51 112 64T147 78Q164 78 175 67T187 38Q187 18 173 4T138 -10Z"  />
<glyph unicode="@" horiz-adv-x="783" d="M372 -70Q304 -70 246 -46T146 20T79 120T55 244Q55 325 88 397T175 522T302 607T452 638Q522 638 580 613T680 545T744 442T767 316Q767 259 754 216T718 144T666 100T605 85Q564 85 541 111T517 170L516 176Q490 139 447 112T352 85Q283 85 241 128T199 245Q199 299 219 345T274 426T350 480T438 500Q489 500 521 475T568 417L581 482H630L571 200Q570 195 570 191T569 181Q569 155 584 141T619 126Q634 126 654 135T692 166T722 224T735 317Q735 379 714 432T656 523T566 584T449 606Q376 606 310 576T195 496T116 381T87 245Q87 185 108 133T168 43T260 -17T376 -39Q431 -39 476 -24T563 18L580 -7Q533 -37 481 -53T372 -70ZM362 127Q390 127 414 136T460 159T497 191T526 227L558 375Q553 388 544 402T521 429T488 450T444 458Q404 458 369 440T308 393T266 325T251 247Q251 195 280 161T362 127Z"  />
<glyph unicode="A" horiz-adv-x="647" d="M515 0L485 164H132L30 0H-39L381 667H452L578 0H515ZM406 606L162 216H478L406 606Z"  />
<glyph unicode="B" horiz-adv-x="615" d="M29 0L176 667H433Q467 667 497 657T549 626T585 578T598 516Q598 480 586 449T552 394T502 355T443 336Q464 331 481 318T512 286T532 245T540 198Q540 160 527 125T485 61T415 17T314 0H29ZM386 368Q428 368 456 381T502 414T527 459T535 510Q535 532 526 551T502 585T465 607T420 615H222L168 368H386ZM317 52Q357 52 387 64T439 98T470 146T481 201Q481 250 449 283T359 316H156L97 52H317Z"  />
<glyph unicode="C" horiz-adv-x="671" d="M367 -12Q301 -12 246 8T152 67T90 158T67 277Q67 368 98 442T182 568T300 649T437 678Q525 678 593 641T699 535L644 510Q609 573 554 599T433 626Q376 626 322 602T224 532T155 423T129 279Q129 225 146 181T194 106T269 57T370 40Q419 40 466 58T559 116L599 82Q548 33 488 11T367 -12Z"  />
<glyph unicode="D" horiz-adv-x="692" d="M29 0L176 667H384Q440 667 489 646T575 587T633 497T655 383Q655 314 630 246T553 123T424 34T241 0H29ZM251 52Q330 52 393 78T502 150T571 255T595 381Q595 432 578 474T532 548T462 597T373 615H222L97 52H253H251Z"  />
<glyph unicode="E" horiz-adv-x="564" d="M29 0L176 667H599L588 615H222L168 368H526L514 316H156L97 52H463L452 0H29Z"  />
<glyph unicode="F" horiz-adv-x="542" d="M29 0L176 667H599L588 615H222L168 368H526L514 316H156L86 0H29Z"  />
<glyph unicode="G" horiz-adv-x="711" d="M367 -12Q298 -12 243 9T148 69T88 161T67 277Q67 364 97 438T178 565T297 648T440 678Q530 678 595 641T697 541L646 515Q615 571 558 598T433 626Q374 626 319 601T222 529T155 419T129 279Q129 224 146 180T195 105T271 57T370 40Q434 40 482 64T564 120L599 280H347L358 332H668L615 93Q563 42 501 15T367 -12Z"  />
<glyph unicode="H" horiz-adv-x="703" d="M509 0L579 317H156L86 0H29L176 667H233L168 369H590L656 667H714L567 0H509Z"  />
<glyph unicode="I" horiz-adv-x="223" d="M29 0L176 667H233L86 0H29Z"  />
<glyph unicode="J" horiz-adv-x="470" d="M156 -12Q99 -12 53 10T-19 76L20 116Q39 81 72 61T153 40Q222 40 262 82T318 193L423 667H480L376 193Q353 88 297 38T156 -12Z"  />
<glyph unicode="K" horiz-adv-x="586" d="M440 0L232 317L138 233L86 0H29L176 667H233L154 309L551 667H628L274 349L508 0H440Z"  />
<glyph unicode="L" horiz-adv-x="484" d="M15 0L162 667H220L84 52H406L396 0H15Z"  />
<glyph unicode="M" horiz-adv-x="790" d="M595 0L726 595L352 0H330L218 595L86 0H29L176 667H258L362 112L712 667H800L653 0H595Z"  />
<glyph unicode="N" horiz-adv-x="699" d="M506 0L214 578L86 0H29L176 667H234L525 97L652 667H709L562 0H506Z"  />
<glyph unicode="O" horiz-adv-x="764" d="M367 -12Q305 -12 250 7T155 62T91 153T67 277Q67 362 96 435T176 562T293 647T437 678Q499 678 553 659T648 603T712 513T736 389Q736 305 707 232T628 104T510 19T367 -12ZM370 40Q430 40 485 66T582 138T649 247T674 387Q674 445 655 490T602 565T525 610T432 626Q371 626 316 600T220 528T154 419T129 279Q129 220 148 176T200 101T276 56T370 40Z"  />
<glyph unicode="P" horiz-adv-x="571" d="M29 0L176 667H415Q452 667 483 654T536 617T572 564T585 500Q585 461 572 422T528 350T451 298T338 277H148L86 0H29ZM344 329Q389 329 422 342T478 379T512 433T524 496Q524 520 515 541T490 579T451 605T401 615H222L159 329H345H344Z"  />
<glyph unicode="Q" horiz-adv-x="764" d="M367 -12Q305 -12 250 7T155 62T91 153T67 277Q67 362 96 435T176 562T293 647T437 678Q499 678 553 659T648 603T712 513T736 389Q736 286 694 201T582 62L627 2L581 -27L537 32Q499 11 456 0T367 -12ZM370 40Q405 40 439 49T504 76L418 193L464 222L549 106Q606 153 640 224T674 387Q674 445 655 490T602 565T525 610T432 626Q371 626 316 600T220 528T154 419T129 279Q129 220 148 176T200 101T276 56T370 40Z"  />
<glyph unicode="R" horiz-adv-x="594" d="M424 0L298 276H147L86 0H29L176 667H405Q439 667 471 656T529 624T570 571T586 499Q586 452 570 413T524 344T452 298T358 279L489 0H424ZM345 328Q389 328 422 341T478 378T512 431T524 496Q524 522 514 544T486 581T446 606T399 615H222L159 328H343H345Z"  />
<glyph unicode="S" horiz-adv-x="581" d="M279 -12Q236 -12 197 -3T124 21T65 58T24 105L66 146Q101 97 156 69T284 40Q329 40 360 53T412 88T442 135T452 185Q452 222 428 246T366 288T286 324T205 362T144 414T119 492Q119 530 136 563T184 622T255 663T344 678Q421 678 482 650T574 574L531 534Q499 582 448 604T339 626Q306 626 277 616T227 587T193 546T181 498Q181 464 205 442T267 402T348 366T428 326T490 271T515 192Q515 154 500 118T455 53T381 6T279 -12Z"  />
<glyph unicode="T" horiz-adv-x="564" d="M199 0L335 615H117L128 667H622L611 615H393L257 0H199Z"  />
<glyph unicode="U" horiz-adv-x="686" d="M328 -12Q270 -12 225 3T147 46T98 115T81 205Q81 221 82 234T86 256L176 667H234L144 257Q142 251 140 239T138 212Q138 136 187 88T328 40Q377 40 413 55T476 98T519 166T548 257L638 667H696L606 256Q592 194 571 145T517 61T438 7T328 -12Z"  />
<glyph unicode="V" horiz-adv-x="647" d="M234 0L108 667H171L280 64L656 667H725L305 0H234Z"  />
<glyph unicode="W" horiz-adv-x="867" d="M540 0L506 573L220 0H156L112 667H175L205 80L499 667H551L585 80L875 667H941L604 0H540Z"  />
<glyph unicode="X" horiz-adv-x="645" d="M507 0L337 302L42 0H-35L307 346L127 667H193L350 384L626 667H704L381 339L572 0H507Z"  />
<glyph unicode="Y" horiz-adv-x="618" d="M226 0L290 285L108 667H172L325 339L622 667H696L347 285L284 0H226Z"  />
<glyph unicode="Z" horiz-adv-x="581" d="M-4 0L7 50L529 615H133L143 667H617L607 618L84 52H488L477 0H-4Z"  />
<glyph unicode="[" horiz-adv-x="228" d="M-59 -190L133 678H307L297 635H168L-6 -147H123L114 -190H-59Z"  />
<glyph unicode="\" horiz-adv-x="282" d="M98 687H143L223 -20H178L98 687Z"  />
<glyph unicode="]" horiz-adv-x="228" d="M-79 -190L-69 -147H59L233 635H103L113 678H287L94 -190H-79Z"  />
<glyph unicode="^" horiz-adv-x="428" d="M383 333L301 626L89 333H38L286 667H328L428 333H383Z"  />
<glyph unicode="_" horiz-adv-x="564" d="M-75 -83L-65 -40H504L494 -83H-75Z"  />
<glyph unicode="`" horiz-adv-x="216" d="M241 556L101 700H163L285 556H241Z"  />
<glyph unicode="a" horiz-adv-x="562" d="M380 550L496 0H436L408 133H108L23 0H-42L316 550H380ZM337 490L137 182H400L337 490Z"  />
<glyph unicode="b" horiz-adv-x="541" d="M27 0L148 550H361Q393 550 422 543T472 520T507 482T520 426Q520 401 512 377T488 333T449 299T395 279Q430 267 452 235T474 165Q474 130 462 100T425 47T365 13T283 0H27ZM285 49Q313 49 337 57T378 82T406 119T416 166Q416 206 390 232T313 258H138L92 49H285ZM344 307Q372 307 394 316T431 342T453 378T461 419Q461 462 429 481T350 501H193L148 307H327H344Z"  />
<glyph unicode="c" horiz-adv-x="581" d="M322 -12Q263 -12 214 5T130 55T74 134T54 237Q54 303 80 362T150 466T254 536T378 562Q447 562 503 532T591 450L544 426Q519 466 474 489T377 513Q325 513 277 492T192 434T133 348T111 240Q111 194 127 157T171 93T238 52T323 37Q371 37 414 54T493 108L531 77Q486 33 435 11T322 -12Z"  />
<glyph unicode="d" horiz-adv-x="611" d="M27 0L148 550H314Q372 550 419 531T500 480T552 404T570 312Q570 256 549 201T484 101T376 28T224 0H27ZM234 49Q302 49 354 72T441 131T494 214T512 309Q512 351 498 386T456 446T391 486T306 501H192L92 49H234Z"  />
<glyph unicode="e" horiz-adv-x="505" d="M27 0L148 550H516L505 501H193L149 307H457L446 258H138L92 49H405L395 0H27Z"  />
<glyph unicode="f" horiz-adv-x="483" d="M27 0L148 550H516L505 501H193L149 307H457L446 258H138L82 0H27Z"  />
<glyph unicode="g" horiz-adv-x="630" d="M323 -12Q266 -12 217 5T132 55T74 132T53 233Q53 297 77 356T145 462T249 535T379 562Q448 562 505 532T598 453L551 426Q539 443 521 459T480 487T431 506T376 513Q319 513 271 490T187 429T131 341T111 236Q111 192 127 156T172 93T240 51T324 36Q374 36 411 50T471 80L504 230H318L328 277H569L521 54Q486 27 438 8T323 -12Z"  />
<glyph unicode="h" horiz-adv-x="629" d="M440 0L497 259H139L82 0H27L148 550H203L149 307H507L561 550H615L494 0H440Z"  />
<glyph unicode="i" horiz-adv-x="216" d="M27 0L148 550H203L82 0H27Z"  />
<glyph unicode="j" horiz-adv-x="417" d="M125 -12Q69 -12 31 8T-28 66L11 101Q28 71 54 54T122 37Q184 37 217 71T262 160L348 550H403L317 158Q297 70 250 29T125 -12Z"  />
<glyph unicode="k" horiz-adv-x="521" d="M379 0L199 257L124 191L82 0H27L148 550H203L139 259L473 550H545L240 288L447 0H379Z"  />
<glyph unicode="l" horiz-adv-x="454" d="M27 0L148 550H203L92 49H370L359 0H27Z"  />
<glyph unicode="m" horiz-adv-x="703" d="M513 0L618 475L309 0H286L187 475L82 0H27L148 550H223L317 98L611 550H689L568 0H513Z"  />
<glyph unicode="n" horiz-adv-x="625" d="M436 0L185 471L82 0H27L148 550H204L454 86L556 550H611L490 0H436Z"  />
<glyph unicode="o" horiz-adv-x="666" d="M313 -12Q252 -12 204 6T123 58T72 138T54 238Q54 301 77 359T142 463T241 535T365 562Q426 562 474 544T555 492T606 412T624 312Q624 249 601 191T536 87T437 15T313 -12ZM313 37Q370 37 417 59T497 120T548 207T567 310Q567 353 554 390T514 454T450 497T364 513Q307 513 261 491T181 430T129 343T110 240Q110 197 123 160T163 96T227 53T313 37Z"  />
<glyph unicode="p" horiz-adv-x="509" d="M27 0L148 550H343Q420 550 465 512T510 411Q510 374 497 340T457 281T394 240T311 224H131L82 0H27ZM314 273Q346 273 371 283T415 312T442 356T452 409Q452 452 422 476T335 501H193L142 273H312H314Z"  />
<glyph unicode="q" horiz-adv-x="666" d="M313 -12Q252 -12 204 6T123 58T72 138T54 238Q54 301 77 359T142 463T241 535T365 562Q426 562 474 544T555 492T606 412T624 312Q624 234 590 165T496 51L531 2L489 -27L453 23Q391 -12 313 -12ZM313 37Q375 37 425 63L355 163L396 193L467 91Q515 130 541 187T567 310Q567 353 554 390T514 454T450 497T364 513Q307 513 261 491T181 430T129 343T110 240Q110 197 123 160T163 96T227 53T313 37Z"  />
<glyph unicode="r" horiz-adv-x="533" d="M364 0L256 224H131L82 0H27L148 550H346Q383 550 413 540T465 510T499 465T511 409Q511 376 500 344T465 286T404 244T314 226L430 0H364ZM310 273Q345 273 371 283T416 312T443 355T453 406Q453 450 421 475T338 501H193L142 273H301H310Z"  />
<glyph unicode="s" horiz-adv-x="499" d="M236 -12Q165 -12 105 12T10 86L51 122Q77 84 127 61T238 37Q278 37 305 47T349 73T373 110T380 151Q380 183 359 203T305 238T235 267T165 298T111 342T89 408Q89 441 105 469T148 517T211 550T286 562Q353 562 405 537T486 473L447 437Q435 455 418 469T379 493T333 508T285 513Q257 513 232 505T189 484T159 451T148 409Q148 380 169 362T223 330T293 303T363 271T417 224T439 153Q439 123 428 94T392 41T329 3T236 -12Z"  />
<glyph unicode="t" horiz-adv-x="465" d="M151 0L261 501H85L96 550H504L493 501H316L206 0H151Z"  />
<glyph unicode="u" horiz-adv-x="613" d="M287 -12Q182 -12 124 34T66 164Q66 173 68 186T72 210L148 550H203L128 212Q126 201 125 191T124 172Q124 105 168 71T286 37Q364 37 407 81T469 212L544 550H599L524 210Q512 157 494 116T447 46T379 3T287 -12Z"  />
<glyph unicode="v" horiz-adv-x="562" d="M195 0L79 550H140L239 62L554 550H617L259 0H195Z"  />
<glyph unicode="w" horiz-adv-x="749" d="M457 0L422 463L184 0H126L82 550H141L173 79L416 550H465L500 78L740 550H801L515 0H457Z"  />
<glyph unicode="x" horiz-adv-x="560" d="M426 0L281 244L30 0H-40L254 282L94 550H160L294 321L530 550H600L322 283L492 0H426Z"  />
<glyph unicode="y" horiz-adv-x="539" d="M190 0L242 235L79 550H143L278 284L527 550H594L296 235L245 0H190Z"  />
<glyph unicode="z" horiz-adv-x="513" d="M-13 0L-4 43L448 501H98L108 550H532L523 506L71 49H428L418 0H-13Z"  />
<glyph unicode="{" horiz-adv-x="249" d="M86 -190Q67 -190 49 -184T17 -164T-6 -134T-15 -93Q-15 -77 -11 -66L38 153Q39 158 39 162T40 171Q40 193 30 208T1 224L10 264Q40 264 56 285T78 335L127 554Q141 616 177 647T266 678H328L318 635H256Q223 635 201 614T171 554L120 327Q113 295 98 273T56 240Q72 232 78 218T85 186Q85 178 84 170T81 152L33 -66Q32 -71 32 -76T31 -87Q31 -113 47 -130T89 -147H145L135 -190H86Z"  />
<glyph unicode="|" horiz-adv-x="208" d="M103 -20V687H146V-20H103Z"  />
<glyph unicode="}" horiz-adv-x="249" d="M162 678Q181 678 199 672T231 652T253 621T262 581Q262 574 262 567T259 554L210 335Q209 330 209 326T208 317Q208 295 218 280T247 264L238 224Q208 224 192 203T170 153L121 -66Q107 -128 71 -159T-18 -190H-80L-70 -147H-9Q25 -147 47 -126T77 -66L127 161Q135 193 150 215T192 249Q176 257 170 271T163 302Q163 310 164 318T167 336L215 554Q216 559 216 564T217 575Q217 601 201 618T159 635H103L113 678H162Z"  />
<glyph unicode="~" horiz-adv-x="499" d="M564 662Q553 617 538 575T502 500T453 448T390 428Q356 428 339 442T312 479T300 526T291 573T274 609T240 624Q200 624 167 572T111 426L69 433Q79 479 94 521T131 595T180 646T242 665Q276 665 293 651T320 614T333 567T342 519T359 483T393 468Q433 468 466 520T522 667L564 662Z"  />
<glyph unicode="&#xA0;" horiz-adv-x="259" />
<glyph unicode="&#xA1;" horiz-adv-x="176" d="M90 401H129L54 0H-11L90 401ZM139 560Q156 560 167 548T179 519Q179 499 165 486T131 472Q114 472 103 483T91 512Q91 532 105 546T139 560Z"  />
<glyph unicode="&#xA2;" horiz-adv-x="581" d="M307 -12L288 -96H245L264 -7Q217 0 179 20T112 72T69 145T54 237Q54 303 80 362T150 466T254 536T378 562H391L403 617H447L433 556Q484 545 525 518T591 450L544 426Q524 457 492 478T422 508L318 37H323Q371 37 414 54T493 108L531 77Q486 33 435 11T322 -12H307ZM111 240Q111 200 123 167T156 108T208 65T275 41L380 513H377Q325 513 277 492T192 434T133 348T111 240Z"  />
<glyph unicode="&#xA3;" horiz-adv-x="415" d="M18 262H107Q93 288 82 315T70 377Q70 416 85 449T125 508T185 547T259 561Q286 561 312 554T360 534T398 502T423 459L376 440Q365 480 332 499T261 519Q233 519 208 509T165 482T135 440T124 386Q124 349 137 320T164 262H298L289 223H179Q183 208 183 191Q183 172 176 153T156 117T130 85T100 63Q110 66 123 66Q144 66 162 61T198 51T231 40T264 35Q289 35 308 44T340 67L358 27Q341 11 319 0T259 -12Q231 -12 212 -7T175 5T138 17T92 23Q72 23 49 15T0 -9L-11 35Q21 47 47 64T92 101T121 142T132 185Q132 195 130 204T125 223H9L18 262Z"  />
<glyph unicode="&#xA4;" horiz-adv-x="506" d="M253 222Q310 222 341 262T372 365Q372 395 364 421T341 467T304 498T253 509Q224 509 202 498T165 468T141 422T133 365Q133 334 141 308T164 263T202 233T253 222ZM19 168L88 239Q50 294 50 365Q50 436 88 489L19 560L64 603L131 534Q155 552 185 563T253 574Q289 574 320 563T375 534L442 603L487 560L418 489Q455 435 455 365Q455 330 445 298T417 240L487 168L442 125L374 194Q325 157 253 157Q181 157 132 194L64 125L19 168Z"  />
<glyph unicode="&#xA5;" horiz-adv-x="539" d="M190 0L215 116H-6L2 154H224L242 234H20L29 273H222L79 550H143L278 284L527 550H594L332 273H521L512 234H296L278 154H494L486 116H270L245 0H190Z"  />
<glyph unicode="&#xA6;" horiz-adv-x="208" d="M103 -20V296H146V-20H103ZM103 371V687H146V371H103Z"  />
<glyph unicode="&#xA7;" horiz-adv-x="461" d="M423 317Q423 272 393 234T295 176Q338 153 353 128T368 71Q368 42 356 15T321 -33T265 -68T189 -81Q118 -81 67 -60T-16 -1L22 32Q45 -2 89 -21T187 -40Q244 -40 279 -10T314 65Q314 92 295 109T248 140T187 165T125 193T78 232T59 291Q59 339 97 377T212 426Q168 442 141 468T113 537Q113 562 124 587T157 632T211 664T285 677Q350 677 397 657T474 602L438 572Q412 607 371 621T288 636Q234 636 200 610T165 545Q165 517 184 500T232 470T294 446T356 418T404 378T423 317ZM369 307Q369 326 361 341T338 367T305 387T264 404Q184 393 148 364T112 299Q112 279 121 264T149 238T192 216T249 195Q316 214 342 245T369 307Z"  />
<glyph unicode="&#xA8;" horiz-adv-x="262" d="M349 605Q349 588 337 576T308 564Q294 564 284 573T274 597Q274 614 286 626T316 638Q330 638 339 629T349 605ZM145 605Q145 588 133 576T103 564Q89 564 80 573T70 597Q70 614 82 626T112 638Q126 638 135 629T145 605Z"  />
<glyph unicode="&#xA9;" horiz-adv-x="778" d="M754 334Q754 263 727 200T653 90T543 16T408 -11Q337 -11 274 16T165 90T91 200T64 334Q64 406 91 468T164 578T274 652T408 679Q480 679 543 652T653 578T727 469T754 334ZM726 334Q726 400 701 457T633 558T532 626T408 651Q343 651 286 626T185 558T117 458T92 334Q92 269 117 211T185 110T285 42T408 17Q474 17 531 42T632 110T701 211T726 334ZM522 172Q495 149 462 135T389 120Q344 120 308 134T248 174T210 234T197 307Q197 359 217 403T270 479T345 530T433 549Q485 549 524 530T588 469L561 450Q543 484 510 501T433 519Q396 519 360 503T295 459T248 392T230 307Q230 275 241 247T274 197T324 163T389 150Q421 150 452 163T505 197L522 172Z"  />
<glyph unicode="&#xAA;" horiz-adv-x="409" d="M267 613Q239 613 215 601T174 566T146 516T136 456Q136 405 162 379T230 353Q265 353 291 370T338 410L372 562Q359 585 331 599T267 613ZM432 640L362 326H319L330 376Q307 347 280 333T217 318Q192 318 170 326T130 351T102 393T91 453Q91 491 104 526T139 589T193 632T261 648Q301 648 331 633T378 591L389 640H432Z"  />
<glyph unicode="&#xAB;" horiz-adv-x="402" d="M149 63L29 243L229 420H290L86 238L202 63H149ZM274 63L154 243L354 420H415L211 238L327 63H274Z"  />
<glyph unicode="&#xAC;" horiz-adv-x="499" d="M461 216H417L460 411H66L75 453H513L461 216Z"  />
<glyph unicode="&#xAD;" horiz-adv-x="300" d="M24 218L34 266H274L264 218H24Z"  />
<glyph unicode="&#xAE;" horiz-adv-x="494" d="M508 465Q508 421 492 383T446 315T378 270T295 253Q251 253 213 269T146 315T101 382T84 465Q84 509 100 548T146 615T213 660T296 677Q340 677 379 661T446 616T491 548T508 465ZM481 465Q481 504 467 537T427 596T367 635T295 650Q257 650 224 636T165 596T126 538T111 465Q111 427 125 394T165 335T223 295T295 280Q333 280 367 294T426 334T466 393T481 465ZM330 343L288 439H240L219 343H189L242 586H333Q359 586 380 570T402 522Q402 504 395 489T376 463T350 446T322 440L366 343H330ZM370 518Q370 538 358 548T328 558H266L246 468H315Q338 468 354 482T370 518Z"  />
<glyph unicode="&#xAF;" horiz-adv-x="363" d="M77 591L85 629H447L439 591H77Z"  />
<glyph unicode="&#xB0;" horiz-adv-x="282" d="M327 560Q327 536 318 515T293 479T256 454T210 445Q186 445 165 454T128 478T103 515T94 560Q94 584 103 605T128 642T165 667T210 677Q234 677 255 668T292 643T317 606T327 560ZM288 560Q288 576 282 590T265 615T240 632T210 638Q178 638 156 615T134 560Q134 528 155 506T209 484Q241 484 264 506T288 560Z"  />
<glyph unicode="&#xB1;" horiz-adv-x="496" d="M288 323L240 105H195L243 323H46L56 364H252L299 576H343L297 364H494L485 323H288ZM-25 0L-16 41H422L413 0H-25Z"  />
<glyph unicode="&#xB2;" horiz-adv-x="384" d="M91 421L100 460Q163 498 216 531T307 596T368 658T390 720Q390 738 382 751T362 772T333 785T299 789Q228 789 186 742L164 772Q189 798 223 812T299 827Q323 827 347 822T391 804T423 771T436 722Q436 686 414 652T354 586T268 522T167 459H380L372 421H91Z"  />
<glyph unicode="&#xB3;" horiz-adv-x="384" d="M399 536Q399 514 390 492T362 453T317 425T256 414Q203 414 164 432T104 486L136 511Q155 482 186 467T255 452Q301 452 327 478T353 542Q353 571 324 590T249 609Q241 609 234 609T221 608L229 646Q240 645 257 645T288 644Q333 644 360 664T388 721Q388 753 359 771T290 789Q258 789 233 779T181 745L161 774Q184 795 219 811T292 827Q320 827 345 821T390 803T421 771T433 727Q433 680 401 653T322 622Q336 619 350 612T375 594T392 569T399 536Z"  />
<glyph unicode="&#xB4;" horiz-adv-x="216" d="M112 556H67L253 700H316L112 556Z"  />
<glyph unicode="&#xB5;" horiz-adv-x="540" d="M-14 -184L134 483H186L111 143Q109 135 109 127T108 110Q108 65 133 49T202 33Q225 33 249 40T297 58T341 84T377 115L460 483H512L405 0H353L368 71Q331 38 280 13T176 -12Q113 -12 82 13L38 -184H-14Z"  />
<glyph unicode="&#xB6;" horiz-adv-x="449" d="M253 -100L415 629H322L160 -100H122L216 323Q188 323 163 334T120 367T90 416T79 479Q79 514 93 548T134 608T195 651T273 667H461L291 -100H253Z"  />
<glyph unicode="&#xB7;" horiz-adv-x="219" d="M106 201Q89 201 77 212T65 241Q65 261 79 274T114 288Q131 288 142 277T154 248Q154 228 140 215T106 201Z"  />
<glyph unicode="&#xB8;" horiz-adv-x="198" d="M15 -189Q-20 -189 -46 -179T-89 -152L-66 -122Q-49 -139 -27 -147T17 -156Q51 -156 67 -141T83 -105Q83 -90 73 -81T43 -71Q21 -71 6 -89L-18 -73L31 11H69L28 -56Q43 -45 62 -45Q88 -45 104 -60T120 -102Q120 -140 92 -164T15 -189Z"  />
<glyph unicode="&#xB9;" horiz-adv-x="214" d="M147 421L221 758L144 692L122 722L241 821H281L193 421H147Z"  />
<glyph unicode="&#xBA;" horiz-adv-x="405" d="M238 318Q172 318 133 357T93 459Q93 497 107 531T145 592T201 633T272 648Q338 648 377 609T417 507Q417 469 403 435T365 374T309 333T238 318ZM239 355Q269 355 294 367T336 401T363 449T373 507Q373 553 345 581T272 610Q242 610 217 598T175 564T148 516T138 459Q138 413 165 384T239 355Z"  />
<glyph unicode="&#xBB;" horiz-adv-x="402" d="M130 420L250 240L50 63H-11L193 245L77 420H130ZM255 420L375 240L175 63H113L318 245L202 420H255Z"  />
<glyph unicode="&#xBC;" horiz-adv-x="742" d="M87 0H42L615 667H661L87 0ZM611 107L587 0H543L566 107H370L378 142L614 400H675L618 144H678L671 107H611ZM621 355L425 144H574L621 355ZM113 267L187 604L110 538L88 568L207 667H247L159 267H113Z"  />
<glyph unicode="&#xBD;" horiz-adv-x="781" d="M87 0H42L615 667H661L87 0ZM395 0L404 39Q467 77 520 110T611 175T672 237T694 299Q694 317 686 330T666 351T637 364T603 368Q532 368 490 321L468 351Q493 377 527 391T603 406Q627 406 651 401T695 383T727 350T740 301Q740 265 718 231T658 165T572 101T471 38H684L676 0H395ZM113 267L187 604L110 538L88 568L207 667H247L159 267H113Z"  />
<glyph unicode="&#xBE;" horiz-adv-x="859" d="M204 0H159L732 667H778L204 0ZM728 107L704 0H660L683 107H487L495 142L731 400H792L735 144H795L788 107H728ZM738 355L542 144H691L738 355ZM365 382Q365 360 356 338T328 299T283 271T222 260Q169 260 130 278T70 332L102 357Q121 328 152 313T221 298Q267 298 293 324T319 388Q319 417 290 436T215 455Q207 455 200 455T187 454L195 492Q206 491 223 491T254 490Q299 490 326 510T354 567Q354 599 325 617T256 635Q224 635 199 625T147 591L127 620Q150 641 185 657T258 673Q286 673 311 667T356 649T387 617T399 573Q399 526 367 499T288 468Q302 465 316 458T341 440T358 415T365 382Z"  />
<glyph unicode="&#xBF;" horiz-adv-x="397" d="M-15 112Q-15 149 2 174T44 217T99 248T154 275T197 303T214 340Q214 348 209 357T192 378L234 399Q247 387 254 373T262 342Q262 312 246 292T205 256T152 229T99 202T59 167T42 118Q42 78 75 57T163 35Q211 35 248 54T318 105L344 68Q307 30 259 10T158 -11Q119 -11 87 -2T33 23T-2 62T-15 112ZM259 560Q276 560 287 548T299 519Q299 499 285 486T250 472Q233 472 222 483T210 512Q210 532 224 546T259 560Z"  />
<glyph unicode="&#xC0;" horiz-adv-x="647" d="M447 728L307 872H369L491 728H447ZM515 0L485 164H132L30 0H-39L381 667H452L578 0H515ZM406 606L162 216H478L406 606Z"  />
<glyph unicode="&#xC1;" horiz-adv-x="647" d="M415 728H370L556 872H619L415 728ZM515 0L485 164H132L30 0H-39L381 667H452L578 0H515ZM406 606L162 216H478L406 606Z"  />
<glyph unicode="&#xC2;" horiz-adv-x="647" d="M519 728L457 841L349 728H307L436 872H490L557 728H519ZM515 0L485 164H132L30 0H-39L381 667H452L578 0H515ZM406 606L162 216H478L406 606Z"  />
<glyph unicode="&#xC3;" horiz-adv-x="647" d="M501 726Q473 726 460 742T437 777T417 812T384 828Q361 828 344 806T315 732H279Q285 760 294 784T318 827T350 855T391 866Q419 866 432 850T455 815T475 780T508 764Q531 764 548 786T578 860H614Q608 832 598 808T574 765T542 737T501 726ZM515 0L485 164H132L30 0H-39L381 667H452L578 0H515ZM406 606L162 216H478L406 606Z"  />
<glyph unicode="&#xC4;" horiz-adv-x="647" d="M580 773Q580 756 568 744T539 732Q525 732 515 741T505 765Q505 782 517 794T547 806Q561 806 570 797T580 773ZM376 773Q376 756 364 744T334 732Q320 732 311 741T301 765Q301 782 313 794T343 806Q357 806 366 797T376 773ZM515 0L485 164H132L30 0H-39L381 667H452L578 0H515ZM406 606L162 216H478L406 606Z"  />
<glyph unicode="&#xC5;" horiz-adv-x="647" d="M434 692Q396 692 372 716T347 779Q347 800 355 819T378 852T411 875T452 884Q490 884 514 860T539 797Q539 776 531 757T508 723T474 701T434 692ZM435 724Q464 724 485 744T507 794Q507 820 492 836T451 852Q422 852 401 832T379 782Q379 756 394 740T435 724ZM515 0L485 164H132L30 0H-39L381 667H452L578 0H515ZM406 606L162 216H478L406 606Z"  />
<glyph unicode="&#xC6;" horiz-adv-x="939" d="M402 0L438 164H167L29 0H-40L528 667H972L961 615H596L541 368H899L888 316H529L471 52H836L825 0H402ZM535 601L208 216H450L535 601Z"  />
<glyph unicode="&#xC7;" horiz-adv-x="671" d="M367 -12Q362 -12 358 -12T348 -11L321 -56Q336 -45 355 -45Q381 -45 397 -60T413 -102Q413 -140 385 -164T308 -189Q273 -189 247 -179T204 -152L227 -122Q244 -139 266 -147T310 -156Q344 -156 360 -141T376 -105Q376 -90 366 -81T336 -71Q314 -71 299 -89L275 -73L313 -8Q258 0 213 23T136 84T85 169T67 277Q67 368 98 442T182 568T300 649T437 678Q525 678 593 641T699 535L644 510Q609 573 554 599T433 626Q376 626 322 602T224 532T155 423T129 279Q129 225 146 181T194 106T269 57T370 40Q419 40 466 58T559 116L599 82Q548 33 488 11T367 -12Z"  />
<glyph unicode="&#xC8;" horiz-adv-x="564" d="M417 728L277 872H339L461 728H417ZM29 0L176 667H599L588 615H222L168 368H526L514 316H156L97 52H463L452 0H29Z"  />
<glyph unicode="&#xC9;" horiz-adv-x="564" d="M385 728H340L526 872H589L385 728ZM29 0L176 667H599L588 615H222L168 368H526L514 316H156L97 52H463L452 0H29Z"  />
<glyph unicode="&#xCA;" horiz-adv-x="564" d="M487 728L425 841L317 728H275L404 872H458L525 728H487ZM29 0L176 667H599L588 615H222L168 368H526L514 316H156L97 52H463L452 0H29Z"  />
<glyph unicode="&#xCB;" horiz-adv-x="564" d="M548 773Q548 756 536 744T507 732Q493 732 483 741T473 765Q473 782 485 794T515 806Q529 806 538 797T548 773ZM344 773Q344 756 332 744T302 732Q288 732 279 741T269 765Q269 782 281 794T311 806Q325 806 334 797T344 773ZM29 0L176 667H599L588 615H222L168 368H526L514 316H156L97 52H463L452 0H29Z"  />
<glyph unicode="&#xCC;" horiz-adv-x="223" d="M235 728L95 872H157L279 728H235ZM29 0L176 667H233L86 0H29Z"  />
<glyph unicode="&#xCD;" horiz-adv-x="223" d="M203 728H158L344 872H407L203 728ZM29 0L176 667H233L86 0H29Z"  />
<glyph unicode="&#xCE;" horiz-adv-x="223" d="M307 728L245 841L137 728H95L224 872H278L345 728H307ZM29 0L176 667H233L86 0H29Z"  />
<glyph unicode="&#xCF;" horiz-adv-x="223" d="M367 773Q367 756 355 744T326 732Q312 732 302 741T292 765Q292 782 304 794T334 806Q348 806 357 797T367 773ZM163 773Q163 756 151 744T121 732Q107 732 98 741T88 765Q88 782 100 794T130 806Q144 806 153 797T163 773ZM29 0L176 667H233L86 0H29Z"  />
<glyph unicode="&#xD0;" horiz-adv-x="721" d="M58 0L126 309H25L36 359H137L205 667H413Q469 667 518 646T604 587T662 497T684 383Q684 314 659 246T582 123T453 34T270 0H58ZM183 309L126 52H280Q359 52 422 78T531 150T600 255T624 381Q624 432 607 474T561 548T491 597T402 615H251L194 359H373L362 309H183Z"  />
<glyph unicode="&#xD1;" horiz-adv-x="699" d="M525 726Q497 726 484 742T461 777T441 812T408 828Q385 828 368 806T339 732H303Q309 760 318 784T342 827T374 855T415 866Q443 866 456 850T479 815T499 780T532 764Q555 764 572 786T602 860H638Q632 832 622 808T598 765T566 737T525 726ZM506 0L214 578L86 0H29L176 667H234L525 97L652 667H709L562 0H506Z"  />
<glyph unicode="&#xD2;" horiz-adv-x="764" d="M509 728L369 872H431L553 728H509ZM367 -12Q305 -12 250 7T155 62T91 153T67 277Q67 362 96 435T176 562T293 647T437 678Q499 678 553 659T648 603T712 513T736 389Q736 305 707 232T628 104T510 19T367 -12ZM370 40Q430 40 485 66T582 138T649 247T674 387Q674 445 655 490T602 565T525 610T432 626Q371 626 316 600T220 528T154 419T129 279Q129 220 148 176T200 101T276 56T370 40Z"  />
<glyph unicode="&#xD3;" horiz-adv-x="764" d="M474 728H429L615 872H678L474 728ZM367 -12Q305 -12 250 7T155 62T91 153T67 277Q67 362 96 435T176 562T293 647T437 678Q499 678 553 659T648 603T712 513T736 389Q736 305 707 232T628 104T510 19T367 -12ZM370 40Q430 40 485 66T582 138T649 247T674 387Q674 445 655 490T602 565T525 610T432 626Q371 626 316 600T220 528T154 419T129 279Q129 220 148 176T200 101T276 56T370 40Z"  />
<glyph unicode="&#xD4;" horiz-adv-x="764" d="M578 728L516 841L408 728H366L495 872H549L616 728H578ZM367 -12Q305 -12 250 7T155 62T91 153T67 277Q67 362 96 435T176 562T293 647T437 678Q499 678 553 659T648 603T712 513T736 389Q736 305 707 232T628 104T510 19T367 -12ZM370 40Q430 40 485 66T582 138T649 247T674 387Q674 445 655 490T602 565T525 610T432 626Q371 626 316 600T220 528T154 419T129 279Q129 220 148 176T200 101T276 56T370 40Z"  />
<glyph unicode="&#xD5;" horiz-adv-x="764" d="M559 726Q531 726 518 742T495 777T475 812T442 828Q419 828 402 806T373 732H337Q343 760 352 784T376 827T408 855T449 866Q477 866 490 850T513 815T533 780T566 764Q589 764 606 786T636 860H672Q666 832 656 808T632 765T600 737T559 726ZM367 -12Q305 -12 250 7T155 62T91 153T67 277Q67 362 96 435T176 562T293 647T437 678Q499 678 553 659T648 603T712 513T736 389Q736 305 707 232T628 104T510 19T367 -12ZM370 40Q430 40 485 66T582 138T649 247T674 387Q674 445 655 490T602 565T525 610T432 626Q371 626 316 600T220 528T154 419T129 279Q129 220 148 176T200 101T276 56T370 40Z"  />
<glyph unicode="&#xD6;" horiz-adv-x="764" d="M636 773Q636 756 624 744T595 732Q581 732 571 741T561 765Q561 782 573 794T603 806Q617 806 626 797T636 773ZM432 773Q432 756 420 744T390 732Q376 732 367 741T357 765Q357 782 369 794T399 806Q413 806 422 797T432 773ZM367 -12Q305 -12 250 7T155 62T91 153T67 277Q67 362 96 435T176 562T293 647T437 678Q499 678 553 659T648 603T712 513T736 389Q736 305 707 232T628 104T510 19T367 -12ZM370 40Q430 40 485 66T582 138T649 247T674 387Q674 445 655 490T602 565T525 610T432 626Q371 626 316 600T220 528T154 419T129 279Q129 220 148 176T200 101T276 56T370 40Z"  />
<glyph unicode="&#xD7;" horiz-adv-x="496" d="M264 305L78 152L52 183L239 337L122 487L155 514L271 363L459 516L484 485L297 331L413 181L381 155L264 305Z"  />
<glyph unicode="&#xD8;" horiz-adv-x="764" d="M367 -12Q313 -12 265 2T178 44L140 0H89L148 69Q110 106 89 158T67 277Q67 362 96 435T176 562T293 647T437 678Q490 678 537 664T622 624L659 667H711L653 599Q691 562 713 510T736 389Q736 305 707 232T628 104T510 19T367 -12ZM370 40Q430 40 485 66T582 138T649 247T674 387Q674 441 658 482T614 553L215 88Q247 64 286 52T370 40ZM129 279Q129 226 144 185T186 114L584 580Q520 626 432 626Q371 626 316 600T220 528T154 419T129 279Z"  />
<glyph unicode="&#xD9;" horiz-adv-x="686" d="M468 728L328 872H390L512 728H468ZM328 -12Q270 -12 225 3T147 46T98 115T81 205Q81 221 82 234T86 256L176 667H234L144 257Q142 251 140 239T138 212Q138 136 187 88T328 40Q377 40 413 55T476 98T519 166T548 257L638 667H696L606 256Q592 194 571 145T517 61T438 7T328 -12Z"  />
<glyph unicode="&#xDA;" horiz-adv-x="686" d="M433 728H388L574 872H637L433 728ZM328 -12Q270 -12 225 3T147 46T98 115T81 205Q81 221 82 234T86 256L176 667H234L144 257Q142 251 140 239T138 212Q138 136 187 88T328 40Q377 40 413 55T476 98T519 166T548 257L638 667H696L606 256Q592 194 571 145T517 61T438 7T328 -12Z"  />
<glyph unicode="&#xDB;" horiz-adv-x="686" d="M541 728L479 841L371 728H329L458 872H512L579 728H541ZM328 -12Q270 -12 225 3T147 46T98 115T81 205Q81 221 82 234T86 256L176 667H234L144 257Q142 251 140 239T138 212Q138 136 187 88T328 40Q377 40 413 55T476 98T519 166T548 257L638 667H696L606 256Q592 194 571 145T517 61T438 7T328 -12Z"  />
<glyph unicode="&#xDC;" horiz-adv-x="686" d="M599 773Q599 756 587 744T558 732Q544 732 534 741T524 765Q524 782 536 794T566 806Q580 806 589 797T599 773ZM395 773Q395 756 383 744T353 732Q339 732 330 741T320 765Q320 782 332 794T362 806Q376 806 385 797T395 773ZM328 -12Q270 -12 225 3T147 46T98 115T81 205Q81 221 82 234T86 256L176 667H234L144 257Q142 251 140 239T138 212Q138 136 187 88T328 40Q377 40 413 55T476 98T519 166T548 257L638 667H696L606 256Q592 194 571 145T517 61T438 7T328 -12Z"  />
<glyph unicode="&#xDD;" horiz-adv-x="618" d="M404 728H359L545 872H608L404 728ZM226 0L290 285L108 667H172L325 339L622 667H696L347 285L284 0H226Z"  />
<glyph unicode="&#xDE;" horiz-adv-x="571" d="M29 0L176 667H233L206 543H387Q423 543 454 530T508 495T544 442T558 376Q558 337 544 298T500 226T423 174T310 153H120L86 0H29ZM316 205Q362 205 396 219T452 256T485 310T496 372Q496 397 486 419T460 457T421 482T373 491H195L132 205H316Z"  />
<glyph unicode="&#xDF;" horiz-adv-x="998" d="M236 -12Q165 -12 105 12T10 86L51 122Q77 84 127 61T238 37Q278 37 305 47T349 73T373 110T380 151Q380 183 359 203T305 238T235 267T165 298T111 342T89 408Q89 441 105 469T148 517T211 550T286 562Q353 562 405 537T486 473L447 437Q435 455 418 469T379 493T333 508T285 513Q257 513 232 505T189 484T159 451T148 409Q148 380 169 362T223 330T293 303T363 271T417 224T439 153Q439 123 428 94T392 41T329 3T236 -12ZM735 -12Q664 -12 604 12T509 86L550 122Q576 84 626 61T737 37Q777 37 804 47T848 73T872 110T879 151Q879 183 858 203T804 238T734 267T664 298T610 342T588 408Q588 441 604 469T647 517T710 550T785 562Q852 562 904 537T985 473L946 437Q934 455 917 469T878 493T832 508T784 513Q756 513 731 505T688 484T658 451T647 409Q647 380 668 362T722 330T792 303T862 271T916 224T938 153Q938 123 927 94T891 41T828 3T735 -12Z"  />
<glyph unicode="&#xE0;" horiz-adv-x="562" d="M380 550L496 0H436L408 133H108L23 0H-42L316 550H380ZM337 490L137 182H400L337 490ZM378 606L238 750H300L422 606H378Z"  />
<glyph unicode="&#xE1;" horiz-adv-x="562" d="M380 550L496 0H436L408 133H108L23 0H-42L316 550H380ZM337 490L137 182H400L337 490ZM346 606H301L487 750H550L346 606Z"  />
<glyph unicode="&#xE2;" horiz-adv-x="562" d="M380 550L496 0H436L408 133H108L23 0H-42L316 550H380ZM337 490L137 182H400L337 490ZM450 606L388 719L280 606H238L367 750H421L488 606H450Z"  />
<glyph unicode="&#xE3;" horiz-adv-x="562" d="M380 550L496 0H436L408 133H108L23 0H-42L316 550H380ZM337 490L137 182H400L337 490ZM431 604Q403 604 390 620T367 655T347 690T314 706Q291 706 274 684T245 610H209Q215 638 224 662T248 705T280 733T321 744Q349 744 362 728T385 693T405 658T438 642Q461 642 478 664T508 738H544Q538 710 528 686T504 643T472 615T431 604Z"  />
<glyph unicode="&#xE4;" horiz-adv-x="562" d="M380 550L496 0H436L408 133H108L23 0H-42L316 550H380ZM337 490L137 182H400L337 490ZM511 658Q511 641 499 629T470 617Q456 617 446 626T436 650Q436 667 448 679T478 691Q492 691 501 682T511 658ZM307 658Q307 641 295 629T265 617Q251 617 242 626T232 650Q232 667 244 679T274 691Q288 691 297 682T307 658Z"  />
<glyph unicode="&#xE5;" horiz-adv-x="562" d="M380 550L496 0H436L408 133H108L23 0H-42L316 550H380ZM337 490L137 182H400L337 490ZM373 607Q335 607 311 631T286 694Q286 715 294 734T317 767T350 790T391 799Q429 799 453 775T478 712Q478 691 470 672T447 638T413 616T373 607ZM374 639Q403 639 424 659T446 709Q446 735 431 751T390 767Q361 767 340 747T318 697Q318 671 333 655T374 639Z"  />
<glyph unicode="&#xE6;" horiz-adv-x="811" d="M332 0L362 133H137L23 0H-42L434 550H822L812 501H498L455 307H762L752 258H444L398 49H712L701 0H332ZM441 490L175 182H372L441 490Z"  />
<glyph unicode="&#xE7;" horiz-adv-x="581" d="M263 -189Q228 -189 202 -179T159 -152L182 -122Q199 -139 221 -147T265 -156Q299 -156 315 -141T331 -105Q331 -90 321 -81T291 -71Q269 -71 254 -89L230 -73L268 -8Q220 -1 181 19T113 71T70 145T54 237Q54 303 80 362T150 466T254 536T378 562Q447 562 503 532T591 450L544 426Q519 466 474 489T377 513Q325 513 277 492T192 434T133 348T111 240Q111 194 127 157T171 93T238 52T323 37Q371 37 414 54T493 108L531 77Q486 33 435 11T322 -12Q317 -12 313 -12T303 -11L276 -56Q291 -45 310 -45Q336 -45 352 -60T368 -102Q368 -140 340 -164T263 -189Z"  />
<glyph unicode="&#xE8;" horiz-adv-x="505" d="M27 0L148 550H516L505 501H193L149 307H457L446 258H138L92 49H405L395 0H27ZM364 606L224 750H286L408 606H364Z"  />
<glyph unicode="&#xE9;" horiz-adv-x="505" d="M27 0L148 550H516L505 501H193L149 307H457L446 258H138L92 49H405L395 0H27ZM332 606H287L473 750H536L332 606Z"  />
<glyph unicode="&#xEA;" horiz-adv-x="505" d="M27 0L148 550H516L505 501H193L149 307H457L446 258H138L92 49H405L395 0H27ZM436 606L374 719L266 606H224L353 750H407L474 606H436Z"  />
<glyph unicode="&#xEB;" horiz-adv-x="505" d="M27 0L148 550H516L505 501H193L149 307H457L446 258H138L92 49H405L395 0H27ZM493 658Q493 641 481 629T452 617Q438 617 428 626T418 650Q418 667 430 679T460 691Q474 691 483 682T493 658ZM289 658Q289 641 277 629T247 617Q233 617 224 626T214 650Q214 667 226 679T256 691Q270 691 279 682T289 658Z"  />
<glyph unicode="&#xEC;" horiz-adv-x="215" d="M27 0L148 550H203L82 0H27ZM204 606L64 750H126L248 606H204Z"  />
<glyph unicode="&#xED;" horiz-adv-x="215" d="M27 0L148 550H203L82 0H27ZM173 606H128L314 750H377L173 606Z"  />
<glyph unicode="&#xEE;" horiz-adv-x="215" d="M27 0L148 550H203L82 0H27ZM276 606L214 719L106 606H64L193 750H247L314 606H276Z"  />
<glyph unicode="&#xEF;" horiz-adv-x="215" d="M27 0L148 550H203L82 0H27ZM338 658Q338 641 326 629T297 617Q283 617 273 626T263 650Q263 667 275 679T305 691Q319 691 328 682T338 658ZM134 658Q134 641 122 629T92 617Q78 617 69 626T59 650Q59 667 71 679T101 691Q115 691 124 682T134 658Z"  />
<glyph unicode="&#xF0;" horiz-adv-x="622" d="M25 0L82 260H14L24 301H91L146 550H312Q370 550 417 531T498 480T550 404T568 312Q568 256 547 201T482 101T374 28T222 0H25ZM232 49Q300 49 352 72T439 131T492 214T510 309Q510 351 496 386T454 446T389 486T304 501H190L145 301H287L278 260H136L90 49H232Z"  />
<glyph unicode="&#xF1;" horiz-adv-x="625" d="M436 0L185 471L82 0H27L148 550H204L454 86L556 550H611L490 0H436ZM461 604Q433 604 420 620T397 655T377 690T344 706Q321 706 304 684T275 610H239Q245 638 254 662T278 705T310 733T351 744Q379 744 392 728T415 693T435 658T468 642Q491 642 508 664T538 738H574Q568 710 558 686T534 643T502 615T461 604Z"  />
<glyph unicode="&#xF2;" horiz-adv-x="666" d="M313 -12Q252 -12 204 6T123 58T72 138T54 238Q54 301 77 359T142 463T241 535T365 562Q426 562 474 544T555 492T606 412T624 312Q624 249 601 191T536 87T437 15T313 -12ZM313 37Q370 37 417 59T497 120T548 207T567 310Q567 353 554 390T514 454T450 497T364 513Q307 513 261 491T181 430T129 343T110 240Q110 197 123 160T163 96T227 53T313 37ZM429 606L289 750H351L473 606H429Z"  />
<glyph unicode="&#xF3;" horiz-adv-x="666" d="M313 -12Q252 -12 204 6T123 58T72 138T54 238Q54 301 77 359T142 463T241 535T365 562Q426 562 474 544T555 492T606 412T624 312Q624 249 601 191T536 87T437 15T313 -12ZM313 37Q370 37 417 59T497 120T548 207T567 310Q567 353 554 390T514 454T450 497T364 513Q307 513 261 491T181 430T129 343T110 240Q110 197 123 160T163 96T227 53T313 37ZM399 606H354L540 750H603L399 606Z"  />
<glyph unicode="&#xF4;" horiz-adv-x="666" d="M313 -12Q252 -12 204 6T123 58T72 138T54 238Q54 301 77 359T142 463T241 535T365 562Q426 562 474 544T555 492T606 412T624 312Q624 249 601 191T536 87T437 15T313 -12ZM313 37Q370 37 417 59T497 120T548 207T567 310Q567 353 554 390T514 454T450 497T364 513Q307 513 261 491T181 430T129 343T110 240Q110 197 123 160T163 96T227 53T313 37ZM502 606L440 719L332 606H290L419 750H473L540 606H502Z"  />
<glyph unicode="&#xF5;" horiz-adv-x="666" d="M313 -12Q252 -12 204 6T123 58T72 138T54 238Q54 301 77 359T142 463T241 535T365 562Q426 562 474 544T555 492T606 412T624 312Q624 249 601 191T536 87T437 15T313 -12ZM313 37Q370 37 417 59T497 120T548 207T567 310Q567 353 554 390T514 454T450 497T364 513Q307 513 261 491T181 430T129 343T110 240Q110 197 123 160T163 96T227 53T313 37ZM485 604Q457 604 444 620T421 655T401 690T368 706Q345 706 328 684T299 610H263Q269 638 278 662T302 705T334 733T375 744Q403 744 416 728T439 693T459 658T492 642Q515 642 532 664T562 738H598Q592 710 582 686T558 643T526 615T485 604Z"  />
<glyph unicode="&#xF6;" horiz-adv-x="666" d="M313 -12Q252 -12 204 6T123 58T72 138T54 238Q54 301 77 359T142 463T241 535T365 562Q426 562 474 544T555 492T606 412T624 312Q624 249 601 191T536 87T437 15T313 -12ZM313 37Q370 37 417 59T497 120T548 207T567 310Q567 353 554 390T514 454T450 497T364 513Q307 513 261 491T181 430T129 343T110 240Q110 197 123 160T163 96T227 53T313 37ZM564 658Q564 641 552 629T523 617Q509 617 499 626T489 650Q489 667 501 679T531 691Q545 691 554 682T564 658ZM360 658Q360 641 348 629T318 617Q304 617 295 626T285 650Q285 667 297 679T327 691Q341 691 350 682T360 658Z"  />
<glyph unicode="&#xF7;" horiz-adv-x="511" d="M45 316L54 358H507L498 316H45ZM228 100Q213 100 203 110T193 136Q193 154 205 166T236 178Q251 178 261 168T272 142Q272 124 259 112T228 100ZM315 492Q300 492 290 502T279 528Q279 545 292 557T322 570Q338 570 348 560T358 534Q358 516 346 504T315 492Z"  />
<glyph unicode="&#xF8;" horiz-adv-x="666" d="M313 -12Q261 -12 219 1T144 39L107 0H53L115 66Q54 133 54 238Q54 301 77 359T142 463T241 535T365 562Q416 562 457 549T531 512L567 550H621L561 485Q624 417 624 312Q624 249 601 191T536 87T437 15T313 -12ZM313 37Q370 37 417 59T497 120T548 207T567 310Q567 390 523 445L181 79Q232 37 313 37ZM110 240Q110 201 120 167T152 107L494 472Q469 491 437 502T364 513Q307 513 261 491T181 430T129 343T110 240Z"  />
<glyph unicode="&#xF9;" horiz-adv-x="613" d="M287 -12Q182 -12 124 34T66 164Q66 173 68 186T72 210L148 550H203L128 212Q126 201 125 191T124 172Q124 105 168 71T286 37Q364 37 407 81T469 212L544 550H599L524 210Q512 157 494 116T447 46T379 3T287 -12ZM402 606L262 750H324L446 606H402Z"  />
<glyph unicode="&#xFA;" horiz-adv-x="613" d="M287 -12Q182 -12 124 34T66 164Q66 173 68 186T72 210L148 550H203L128 212Q126 201 125 191T124 172Q124 105 168 71T286 37Q364 37 407 81T469 212L544 550H599L524 210Q512 157 494 116T447 46T379 3T287 -12ZM373 606H328L514 750H577L373 606Z"  />
<glyph unicode="&#xFB;" horiz-adv-x="613" d="M287 -12Q182 -12 124 34T66 164Q66 173 68 186T72 210L148 550H203L128 212Q126 201 125 191T124 172Q124 105 168 71T286 37Q364 37 407 81T469 212L544 550H599L524 210Q512 157 494 116T447 46T379 3T287 -12ZM474 606L412 719L304 606H262L391 750H445L512 606H474Z"  />
<glyph unicode="&#xFC;" horiz-adv-x="613" d="M287 -12Q182 -12 124 34T66 164Q66 173 68 186T72 210L148 550H203L128 212Q126 201 125 191T124 172Q124 105 168 71T286 37Q364 37 407 81T469 212L544 550H599L524 210Q512 157 494 116T447 46T379 3T287 -12ZM536 658Q536 641 524 629T495 617Q481 617 471 626T461 650Q461 667 473 679T503 691Q517 691 526 682T536 658ZM332 658Q332 641 320 629T290 617Q276 617 267 626T257 650Q257 667 269 679T299 691Q313 691 322 682T332 658Z"  />
<glyph unicode="&#xFD;" horiz-adv-x="539" d="M190 0L242 235L79 550H143L278 284L527 550H594L296 235L245 0H190ZM336 606H291L477 750H540L336 606Z"  />
<glyph unicode="&#xFE;" horiz-adv-x="509" d="M27 0L148 550H203L182 453H321Q358 453 389 443T442 415T476 372T488 314Q488 278 475 245T437 185T374 143T289 127H110L82 0H27ZM292 176Q324 176 349 186T393 215T420 258T430 311Q430 358 397 381T313 404H171L120 176H279H292Z"  />
<glyph unicode="&#xFF;" horiz-adv-x="539" d="M190 0L242 235L79 550H143L278 284L527 550H594L296 235L245 0H190ZM501 658Q501 641 489 629T460 617Q446 617 436 626T426 650Q426 667 438 679T468 691Q482 691 491 682T501 658ZM297 658Q297 641 285 629T255 617Q241 617 232 626T222 650Q222 667 234 679T264 691Q278 691 287 682T297 658Z"  />
<glyph unicode="&#x152;" horiz-adv-x="1115" d="M578 0L603 114Q561 56 497 22T348 -12Q285 -12 233 9T145 69T88 160T67 277Q67 365 97 439T179 565T299 647T442 677Q482 677 520 668T591 639T649 586T690 505L725 667H1148L1137 615H772L717 368H1075L1063 316H705L647 52H1012L1001 0H578ZM672 425Q658 522 596 573T439 625Q376 625 320 599T221 527T154 417T129 279Q129 224 146 180T194 104T268 57T364 40Q402 40 439 50T509 80T571 129T621 194L672 425Z"  />
<glyph unicode="&#x153;" horiz-adv-x="964" d="M485 0L506 96Q468 39 415 14T304 -12Q246 -12 200 6T121 57T72 136T54 238Q54 301 77 359T141 463T240 535T365 562Q399 562 432 554T493 529T543 486T578 421L606 550H975L964 501H651L607 307H915L904 258H597L551 49H864L854 0H485ZM564 359Q555 401 535 430T487 478T429 504T365 513Q311 513 265 492T184 433T130 346T110 240Q110 193 125 155T168 91T232 51T313 37Q383 37 439 76T526 190L564 359Z"  />
<glyph unicode="&#x160;" horiz-adv-x="581" d="M365 728L297 872H335L396 759L505 872H547L419 728H365ZM279 -12Q236 -12 197 -3T124 21T65 58T24 105L66 146Q101 97 156 69T284 40Q329 40 360 53T412 88T442 135T452 185Q452 222 428 246T366 288T286 324T205 362T144 414T119 492Q119 530 136 563T184 622T255 663T344 678Q421 678 482 650T574 574L531 534Q499 582 448 604T339 626Q306 626 277 616T227 587T193 546T181 498Q181 464 205 442T267 402T348 366T428 326T490 271T515 192Q515 154 500 118T455 53T381 6T279 -12Z"  />
<glyph unicode="&#x161;" horiz-adv-x="499" d="M236 -12Q165 -12 105 12T10 86L51 122Q77 84 127 61T238 37Q278 37 305 47T349 73T373 110T380 151Q380 183 359 203T305 238T235 267T165 298T111 342T89 408Q89 441 105 469T148 517T211 550T286 562Q353 562 405 537T486 473L447 437Q435 455 418 469T379 493T333 508T285 513Q257 513 232 505T189 484T159 451T148 409Q148 380 169 362T223 330T293 303T363 271T417 224T439 153Q439 123 428 94T392 41T329 3T236 -12ZM306 606L238 750H276L337 637L446 750H488L360 606H306Z"  />
<glyph unicode="&#x178;" horiz-adv-x="618" d="M568 773Q568 756 556 744T527 732Q513 732 503 741T493 765Q493 782 505 794T535 806Q549 806 558 797T568 773ZM364 773Q364 756 352 744T322 732Q308 732 299 741T289 765Q289 782 301 794T331 806Q345 806 354 797T364 773ZM226 0L290 285L108 667H172L325 339L622 667H696L347 285L284 0H226Z"  />
<glyph unicode="&#x17D;" horiz-adv-x="581" d="M372 728L304 872H342L403 759L512 872H554L426 728H372ZM-4 0L7 50L529 615H133L143 667H617L607 618L84 52H488L477 0H-4Z"  />
<glyph unicode="&#x17E;" horiz-adv-x="513" d="M-13 0L-4 43L448 501H98L108 550H532L523 506L71 49H428L418 0H-13ZM308 606L240 750H278L339 637L448 750H490L362 606H308Z"  />
<glyph unicode="&#x192;" horiz-adv-x="354" d="M-28 -119L48 221H-6V262H56L90 412Q106 484 139 522T231 561Q253 561 272 555T310 531L282 490Q267 509 237 509Q198 509 178 481T148 407L115 262H232V221H106L30 -119H-28Z"  />
<glyph unicode="&#x2C6;" horiz-adv-x="250" d="M281 556L219 669L111 556H69L198 700H252L319 556H281Z"  />
<glyph unicode="&#x2DC;" horiz-adv-x="307" d="M292 554Q264 554 251 570T228 605T208 640T175 656Q152 656 135 634T106 560H70Q76 588 85 612T109 655T141 683T182 694Q210 694 223 678T246 643T266 608T299 592Q322 592 339 614T369 688H405Q399 660 389 636T365 593T333 565T292 554Z"  />
<glyph unicode="&#x3BC;" horiz-adv-x="540" d="M-14 -184L134 483H186L111 143Q109 135 109 127T108 110Q108 65 133 49T202 33Q225 33 249 40T297 58T341 84T377 115L460 483H512L405 0H353L368 71Q331 38 280 13T176 -12Q113 -12 82 13L38 -184H-14Z"  />
<glyph unicode="&#x2013;" horiz-adv-x="593" d="M24 218L34 266H567L557 218H24Z"  />
<glyph unicode="&#x2014;" horiz-adv-x="833" d="M24 218L34 266H807L797 218H24Z"  />
<glyph unicode="&#x2018;" horiz-adv-x="219" d="M116 531Q116 552 124 573T147 614T180 650T219 677L243 651Q215 637 194 614T165 567H172Q186 567 196 557T206 530Q206 510 192 497T159 483Q141 483 129 495T116 531Z"  />
<glyph unicode="&#x2019;" horiz-adv-x="219" d="M242 629Q242 608 234 587T211 546T178 510T139 483L115 509Q143 523 164 546T193 593H186Q172 593 162 603T152 629Q152 649 166 663T199 677Q217 677 229 665T242 629Z"  />
<glyph unicode="&#x201A;" horiz-adv-x="219" d="M109 30Q109 9 101 -13T78 -54T45 -90T6 -116L-18 -90Q10 -76 31 -53T60 -6H53Q39 -6 29 4T19 30Q19 50 33 64T66 78Q84 78 96 66T109 30Z"  />
<glyph unicode="&#x201C;" horiz-adv-x="361" d="M267 531Q267 552 275 573T298 614T330 650T369 677L393 651Q366 637 344 614T315 567H322Q336 567 346 557T357 530Q357 510 343 497T309 483Q291 483 279 495T267 531ZM126 531Q126 552 134 573T157 614T189 650T228 677L253 651Q225 637 204 614T175 567H182Q196 567 206 557T216 530Q216 510 202 497T168 483Q151 483 139 495T126 531Z"  />
<glyph unicode="&#x201D;" horiz-adv-x="361" d="M242 629Q242 608 234 587T211 546T178 510T139 483L115 509Q143 523 164 546T193 593H186Q172 593 162 603T152 629Q152 649 166 663T199 677Q217 677 229 665T242 629ZM382 629Q382 608 374 587T351 546T319 510T280 483L256 509Q284 523 305 546T334 593H327Q313 593 303 603T293 629Q293 649 307 663T340 677Q358 677 370 665T382 629Z"  />
<glyph unicode="&#x201E;" horiz-adv-x="361" d="M109 30Q109 9 101 -13T78 -54T45 -90T6 -116L-18 -90Q10 -76 31 -53T60 -6H53Q39 -6 29 4T19 30Q19 50 33 64T66 78Q84 78 96 66T109 30ZM249 30Q249 9 241 -13T218 -54T186 -90T147 -116L123 -90Q150 -76 172 -53T201 -6H194Q180 -6 170 4T159 30Q159 50 173 64T207 78Q225 78 237 66T249 30Z"  />
<glyph unicode="&#x2020;" horiz-adv-x="257" d="M209 539L166 327H127L178 539L88 535L96 570L184 567L205 677H244L215 567L305 570L297 535L209 539Z"  />
<glyph unicode="&#x2021;" horiz-adv-x="257" d="M297 535L209 539L160 318L250 322L242 287L154 290L133 180H94L123 290L33 287L41 322L129 318L178 539L88 535L96 570L184 567L205 677H244L215 567L305 570L297 535Z"  />
<glyph unicode="&#x2022;" horiz-adv-x="358" d="M283 252Q283 229 274 209T249 173T212 149T168 140Q128 140 102 166T75 233Q75 256 84 276T109 312T146 336T190 345Q230 345 256 319T283 252Z"  />
<glyph unicode="&#x2026;" horiz-adv-x="657" d="M59 -10Q42 -10 31 2T19 31Q19 51 33 64T67 78Q84 78 95 67T107 38Q107 18 93 4T59 -10ZM278 -10Q261 -10 250 2T238 31Q238 51 252 64T286 78Q303 78 314 67T326 38Q326 18 312 4T278 -10ZM497 -10Q480 -10 469 2T457 31Q457 51 471 64T505 78Q522 78 533 67T545 38Q545 18 531 4T497 -10Z"  />
<glyph unicode="&#x2030;" horiz-adv-x="867" d="M328 445Q328 415 317 387T287 338T240 303T181 290Q127 290 95 321T63 406Q63 436 74 464T104 514T151 549T210 562Q263 562 295 531T328 445ZM68 0H23L527 550H573L68 0ZM286 443Q286 478 267 503T209 528Q186 528 167 518T134 491T112 452T104 407Q104 373 124 349T182 324Q204 324 223 334T256 360T278 398T286 443ZM532 143Q532 113 521 85T491 36T444 1T385 -12Q332 -12 300 19T267 105Q267 135 278 163T308 213T355 248T414 261Q467 261 499 229T532 143ZM490 142Q490 176 471 201T413 226Q390 226 371 216T338 189T316 151T308 106Q308 72 328 48T386 23Q408 23 427 33T460 59T482 97T490 142ZM816 143Q816 113 805 85T775 36T728 1T669 -12Q616 -12 584 19T552 105Q552 135 563 163T593 213T639 248T698 261Q751 261 783 229T816 143ZM775 142Q775 176 755 201T697 226Q674 226 655 216T623 189T601 151T593 106Q593 72 613 48T671 23Q693 23 712 33T745 59T767 97T775 142Z"  />
<glyph unicode="&#x2039;" horiz-adv-x="277" d="M149 63L29 243L229 420H290L86 238L202 63H149Z"  />
<glyph unicode="&#x203A;" horiz-adv-x="277" d="M130 420L250 240L50 63H-11L193 245L77 420H130Z"  />
<glyph unicode="&#x20AC;" horiz-adv-x="610" d="M151 318Q140 279 140 240V231H412L404 194H144Q151 158 170 129T216 80T277 48T352 37Q400 37 443 54T522 108L560 77Q515 33 464 11T351 -12Q298 -12 253 2T173 43T116 108T86 194H24L31 231H83V237Q83 281 93 318H51L59 356H106Q124 401 155 438T225 503T310 546T407 562Q476 562 532 532T620 450L573 426Q548 466 503 489T406 513Q368 513 332 502T265 470T208 420T166 356H440L431 318H151Z"  />
<glyph unicode="&#x2122;" horiz-adv-x="454" d="M436 447L476 629L361 447H353L318 629L278 447H250L298 667H341L370 507L469 667H512L464 447H436ZM195 641L152 447H124L167 641H105L110 667H262L257 641H195Z"  />


</font>
</defs>
</svg>
